<?xml version="1.0" encoding="utf-8"?>
<!-- Generator: Adobe Illustrator 19.0.0, SVG Export Plug-In . SVG Version: 6.00 Build 0)  -->
<svg version="1.1" id="Layer_1" xmlns="http://www.w3.org/2000/svg" xmlns:xlink="http://www.w3.org/1999/xlink" x="0px" y="0px"
	 viewBox="0 0 1000 1000" style="enable-background:new 0 0 1000 1000;" xml:space="preserve">
<path id="XMLID_23_" d="M777.8,290H231.2c-6.1,0-11,5.5-11,12.1l59.2,612.8c0,6.6,5,12.2,11,12.2h423.1c6.6,0,12-5.6,12-12.2
	L789.8,302C789.8,295.4,784.4,290,777.8,290z M390.4,892.1l-31.9,2.6c-6.6,0.5-12.4-4.4-12.9-11L302,349.5
	c-0.5-6.6,4.4-12.4,11-12.9l31.9-2.6c6.6-0.5,12.4,4.4,12.9,11l43.6,534.2C401.9,885.8,397,891.6,390.4,892.1z M528,875
	c0,6.6-5.4,12-12,12h-32c-6.6,0-12-5.4-12-12V339c0-6.6,5.4-12,12-12h32c6.6,0,12,5.4,12,12V875z M703.2,349.8l-47.3,533.9
	c-0.6,6.6-6.4,11.5-13,10.9l-31.9-2.8c-6.6-0.6-11.5-6.4-10.9-13l47.3-533.9c0.6-6.6,6.4-11.5,13-10.9l31.9,2.8
	C698.9,337.4,703.8,343.3,703.2,349.8z"/>
<path id="XMLID_18_" d="M781,208H624v-44.3c0-6.6-5.7-11.7-12.3-11.7H388.3c-6.6,0-12.3,5.1-12.3,11.7V208H219
	c-6.6,0-12,5.1-12,11.7V261c0,6.6,5.4,12,12,12h562c6.6,0,12-5.4,12-12v-41.3C793,213.1,787.6,208,781,208z M408,193.7
	c0-6.6,5.1-11.7,11.7-11.7H577c6.6,0,12,5.1,12,11.7V208H408V193.7z"/>
</svg>
